<svg xmlns="http://www.w3.org/2000/svg" viewBox="0 0 1080 1080" width="1080" height="1080">
<path d="M179,670 L180,748 L401,748 L403,628 L676,628 L678,748 L899,748 L898,669 L765,668 L765,430 L677,431 L675,550 L404,550 L402,431 L314,430 L314,667 Z" fill="rgb(254,254,255)" />
<path d="M496,430 L495,432 L496,508 L583,508 L583,430 Z" fill="rgb(42,214,53)" />
<path d="M495,333 L496,409 L525,410 L583,409 L582,331 L498,331 Z" fill="rgb(42,214,53)" />
<path d="M313,650 L311,650 L307,655 L298,658 L205,658 L192,662 L187,666 L187,668 L296,667 L297,666 L306,666 L312,664 Z" fill="rgb(9,9,200)" />
<path d="M676,633 L431,630 L415,644 L414,729 L401,749 L188,751 L207,758 L402,757 L417,748 L422,736 L423,652 L431,640 L664,639 L676,648 Z" fill="rgb(9,9,200)" />
<path d="M687,424 L684,429 L762,428 L775,441 L780,658 L803,667 L899,668 L910,684 L911,723 L899,749 L685,751 L701,758 L907,754 L919,734 L919,682 L911,665 L894,658 L801,658 L787,649 L781,431 L759,419 Z" fill="rgb(9,9,200)" />
<path d="M321,427 L400,428 L410,437 L414,448 L415,533 L428,546 L666,547 L676,544 L676,529 L664,538 L435,538 L427,534 L423,525 L423,448 L420,434 L412,424 L396,419 L340,419 Z" fill="rgb(9,9,200)" />
<path d="M509,324 L503,330 L583,330 L592,340 L595,393 L583,411 L569,414 L501,411 L501,429 L526,426 L584,429 L595,447 L595,491 L582,510 L503,511 L523,519 L589,516 L599,508 L604,492 L604,446 L595,421 L604,394 L602,338 L593,326 L579,321 Z" fill="rgb(9,9,200)" />
<path d="M900,672 L900,744 L902,744 L907,738 L907,736 L909,732 L909,724 L910,723 L910,693 L909,692 L909,684 L908,683 L907,678 L902,672 Z" fill="rgb(23,24,145)" />
<path d="M313,665 L311,665 L310,666 L307,666 L307,668 L312,668 L313,667 Z" fill="rgb(23,24,145)" />
<path d="M426,629 L403,629 L403,744 L405,744 L409,740 L413,729 L413,650 L414,649 L414,644 L417,637 L421,633 L426,631 Z" fill="rgb(23,24,145)" />
<path d="M676,546 L672,546 L671,547 L667,547 L667,549 L675,549 L676,548 Z" fill="rgb(23,24,145)" />
<path d="M766,433 L766,668 L792,668 L792,666 L785,664 L779,658 L776,648 L776,451 L772,437 Z" fill="rgb(23,24,145)" />
<path d="M584,433 L584,505 L586,505 L591,500 L592,498 L592,496 L593,495 L593,492 L594,491 L594,447 L593,446 L593,443 L592,442 L592,440 L589,436 L589,435 L587,433 Z" fill="rgb(23,24,145)" />
<path d="M403,433 L403,548 L404,549 L432,549 L432,547 L428,547 L420,543 L416,538 L414,533 L414,527 L413,526 L413,448 L411,440 L405,433 Z" fill="rgb(23,24,145)" />
<path d="M526,427 L526,429 L573,429 L573,427 Z" fill="rgb(23,24,145)" />
<path d="M529,411 L529,413 L569,413 L569,411 Z" fill="rgb(23,24,145)" />
<path d="M584,335 L584,407 L586,407 L590,403 L593,397 L593,394 L594,393 L594,349 L593,348 L593,344 L591,340 L589,338 L589,337 L587,335 Z" fill="rgb(23,24,145)" />
</svg>