<svg xmlns="http://www.w3.org/2000/svg" viewBox="0 0 1080 1080" width="1080" height="1080">
<path d="M683,469 L683,673 L1012,673 L1011,546 L870,546 L868,623 L740,623 L739,470 Z" fill="rgb(254,254,254)" />
<path d="M67,623 L67,673 L209,673 L211,596 L390,596 L392,673 L621,673 L621,470 L565,470 L564,623 L535,622 L535,470 L478,470 L478,622 L449,623 L448,470 L392,470 L391,546 L210,546 L209,469 L153,470 L153,622 Z" fill="rgb(254,254,254)" />
<path d="M913,470 L913,519 L969,519 L969,470 L968,469 L914,469 Z" fill="rgb(42,214,52)" />
<path d="M270,470 L270,519 L326,519 L326,470 L325,469 L272,469 Z" fill="rgb(42,214,52)" />
<path d="M270,406 L270,456 L326,456 L326,406 Z" fill="rgb(42,214,52)" />
<path d="M152,607 L150,607 L148,609 L144,611 L140,611 L139,612 L94,612 L93,613 L85,614 L79,617 L76,620 L76,622 L95,622 L96,621 L137,621 L138,620 L147,620 L148,619 L151,619 L152,618 Z" fill="rgb(9,10,201)" />
<path d="M391,601 L374,598 L238,599 L225,610 L223,656 L219,666 L209,674 L77,676 L84,681 L101,684 L209,683 L223,677 L229,669 L232,621 L239,609 L377,607 L391,613 Z" fill="rgb(9,10,201)" />
<path d="M931,589 L926,594 L924,598 L924,601 L923,602 L923,617 L924,618 L924,621 L926,625 L931,630 L935,631 L936,632 L939,632 L940,633 L959,633 L960,632 L966,631 L969,627 L969,592 L968,590 L966,588 L960,587 L959,586 L940,586 L939,587 L936,587 L935,588 Z" fill="rgb(9,10,201)" />
<path d="M1028,550 L1015,538 L978,530 L987,511 L988,483 L977,464 L925,462 L919,468 L969,468 L979,485 L976,512 L969,521 L918,521 L919,532 L886,537 L876,545 L1012,545 L1022,563 L1022,656 L1012,674 L690,676 L714,684 L1013,682 L1025,674 L1031,658 Z" fill="rgb(9,10,201)" />
<path d="M690,466 L690,468 L738,468 L749,482 L751,605 L758,617 L772,621 L855,621 L868,617 L868,601 L860,610 L854,612 L773,612 L765,609 L759,596 L759,484 L754,470 L748,464 L733,459 L708,459 Z" fill="rgb(9,10,201)" />
<path d="M636,469 L615,459 L590,459 L571,467 L620,468 L632,483 L633,655 L621,674 L401,676 L425,684 L609,684 L633,677 L642,655 L642,488 Z" fill="rgb(9,10,201)" />
<path d="M495,461 L489,464 L486,469 L534,468 L542,475 L546,482 L548,498 L548,605 L555,616 L562,617 L564,612 L564,479 L559,480 L545,464 L539,461 L530,459 L505,459 Z" fill="rgb(9,10,201)" />
<path d="M407,462 L402,465 L400,469 L448,468 L460,482 L462,605 L469,616 L477,617 L477,481 L473,481 L467,472 L459,464 L453,461 L444,459 L419,459 Z" fill="rgb(9,10,201)" />
<path d="M274,457 L274,459 L275,460 L275,468 L288,468 L288,466 L289,465 L289,461 L288,460 L288,459 L287,458 L287,457 Z" fill="rgb(9,10,201)" />
<path d="M163,466 L209,468 L219,476 L224,529 L237,543 L391,541 L391,529 L380,535 L338,531 L348,504 L344,468 L348,422 L343,407 L328,397 L296,396 L279,403 L326,405 L338,419 L339,440 L330,466 L339,486 L339,503 L326,521 L277,520 L281,528 L278,533 L241,534 L233,526 L231,480 L221,464 L207,459 L179,459 Z" fill="rgb(9,10,201)" />
<path d="M969,631 L967,631 L966,632 L964,632 L963,633 L960,633 L960,635 L968,635 L969,634 Z" fill="rgb(23,23,143)" />
<path d="M868,619 L866,619 L865,620 L862,620 L862,622 L868,622 Z" fill="rgb(23,23,143)" />
<path d="M237,597 L211,597 L210,598 L210,671 L214,670 L218,666 L220,663 L221,657 L222,656 L222,621 L223,620 L223,613 L224,612 L224,610 L226,606 L231,601 L235,599 L237,599 Z" fill="rgb(23,23,143)" />
<path d="M964,585 L964,587 L966,587 L967,588 L969,588 L969,585 Z" fill="rgb(23,23,143)" />
<path d="M913,585 L913,635 L939,635 L939,633 L936,633 L935,632 L931,631 L925,625 L923,621 L923,618 L922,617 L922,602 L923,601 L923,598 L925,594 L931,588 L935,587 L935,585 Z" fill="rgb(23,23,143)" />
<path d="M1013,551 L1013,668 L1015,668 L1018,665 L1021,656 L1021,563 L1018,554 L1015,551 Z" fill="rgb(23,23,143)" />
<path d="M970,474 L970,515 L972,515 L975,512 L975,511 L976,510 L976,509 L977,508 L977,505 L978,504 L978,485 L977,484 L977,482 L976,481 L976,479 L974,477 L974,476 L972,474 Z" fill="rgb(23,23,143)" />
<path d="M740,474 L740,622 L764,622 L764,620 L758,618 L754,614 L750,605 L749,486 L745,476 L743,474 Z" fill="rgb(23,23,143)" />
<path d="M622,473 L622,670 L624,670 L628,666 L632,655 L632,488 L629,478 Z" fill="rgb(23,23,143)" />
<path d="M536,473 L536,622 L564,622 L564,618 L555,617 L550,612 L547,605 L547,498 L545,482 L541,475 Z" fill="rgb(23,23,143)" />
<path d="M449,472 L449,622 L477,622 L477,618 L469,617 L464,612 L461,605 L460,486 L457,478 L451,472 Z" fill="rgb(23,23,143)" />
<path d="M210,472 L210,545 L236,545 L236,543 L232,542 L226,536 L223,529 L223,522 L222,521 L222,487 L221,486 L221,482 L218,476 L215,473 L213,472 Z" fill="rgb(23,23,143)" />
<path d="M327,409 L327,456 L326,457 L289,457 L290,461 L289,468 L325,468 L327,470 L327,517 L329,517 L334,513 L338,503 L338,486 L336,479 L329,466 L329,460 L337,445 L338,423 L334,413 L331,410 Z" fill="rgb(23,23,143)" />
</svg>