<svg xmlns="http://www.w3.org/2000/svg" viewBox="0 0 1080 1080" width="1080" height="1080">
<path d="M1011,723 L976,723 L975,724 L973,724 L969,728 L969,730 L968,731 L968,735 L967,736 L967,739 L966,740 L966,743 L965,744 L965,747 L964,748 L964,752 L963,753 L963,756 L962,757 L962,760 L961,761 L961,765 L960,766 L959,772 L979,772 L979,769 L980,768 L980,765 L981,764 L981,761 L982,760 L982,757 L983,756 L983,752 L984,751 L984,748 L985,747 L985,744 L986,743 L986,740 L987,739 L988,731 L990,729 L1009,729 L1010,728 Z" fill="rgb(255,255,255)" />
<path d="M895,723 L886,761 L886,769 L890,772 L930,772 L934,770 L939,763 L948,723 L928,723 L920,760 L917,767 L907,767 L906,766 L907,756 L915,723 Z" fill="rgb(255,255,255)" />
<path d="M823,725 L820,729 L816,750 L812,763 L813,769 L817,772 L863,772 L864,767 L833,767 L832,763 L834,758 L866,758 L873,731 L873,726 L869,723 L827,723 Z" fill="rgb(255,255,255)" />
<path d="M617,723 L608,758 L607,768 L612,772 L651,772 L657,769 L661,761 L669,723 L650,723 L649,724 L640,765 L638,767 L628,767 L627,766 L636,723 Z" fill="rgb(255,255,255)" />
<path d="M554,723 L553,729 L573,729 L574,730 L574,734 L572,737 L545,737 L541,739 L538,744 L536,752 L536,756 L534,761 L534,769 L538,772 L584,772 L593,737 L594,726 L591,723 Z" fill="rgb(255,255,255)" />
<path d="M807,710 L774,710 L770,711 L766,715 L763,723 L753,723 L752,729 L761,729 L762,730 L756,754 L756,758 L753,767 L753,772 L772,772 L782,730 L783,729 L798,729 L799,727 L799,723 L785,723 L784,722 L785,717 L786,716 L806,716 Z" fill="rgb(255,255,255)" />
<path d="M741,710 L708,710 L704,711 L700,715 L699,720 L697,723 L687,723 L686,729 L695,729 L696,730 L692,750 L688,763 L687,772 L706,772 L716,730 L717,729 L732,729 L733,728 L733,723 L719,723 L718,722 L719,717 L720,716 L740,716 Z" fill="rgb(255,255,255)" />
<path d="M473,710 L459,772 L479,771 L486,737 L489,729 L501,730 L492,772 L511,772 L521,731 L521,726 L517,723 L491,723 L490,720 L492,715 L492,710 Z" fill="rgb(255,255,255)" />
<path d="M411,711 L405,716 L403,721 L403,725 L394,760 L394,769 L398,772 L439,772 L440,766 L416,766 L415,765 L415,760 L425,723 L425,719 L427,717 L452,717 L453,710 L416,710 Z" fill="rgb(255,255,255)" />
<path d="M683,470 L683,673 L1012,673 L1012,547 L870,547 L868,624 L740,624 L738,470 Z" fill="rgb(255,255,255)" />
<path d="M67,624 L67,673 L209,673 L211,596 L391,597 L392,673 L621,673 L621,470 L565,470 L563,624 L534,622 L534,470 L479,470 L477,624 L448,622 L448,470 L392,471 L391,547 L211,547 L209,470 L153,470 L153,622 Z" fill="rgb(255,255,255)" />
<path d="M447,768 L444,765 L442,765 L442,768 L441,769 L441,772 L439,774 L404,774 L404,776 L443,776 L446,774 L446,773 L447,772 Z" fill="rgb(36,176,90)" />
<path d="M569,744 L560,744 L559,745 L559,749 L558,750 L558,753 L557,754 L557,757 L556,758 L556,761 L555,762 L555,765 L563,765 L563,756 L564,755 L564,752 L565,751 L565,750 L567,748 L569,748 Z" fill="rgb(36,176,90)" />
<path d="M851,730 L842,730 L841,731 L841,734 L840,735 L840,738 L839,739 L839,743 L838,744 L838,747 L837,748 L837,751 L844,751 L844,744 L845,743 L845,740 L846,739 L846,737 L847,736 L847,735 L848,734 L849,734 L850,733 L851,733 Z" fill="rgb(36,176,90)" />
<path d="M558,730 L558,732 L559,733 L559,736 L571,736 L572,735 L572,730 Z" fill="rgb(36,176,90)" />
<path d="M499,730 L490,730 L489,731 L489,734 L488,735 L488,739 L487,740 L487,743 L486,744 L486,747 L485,748 L485,751 L484,752 L484,756 L483,757 L483,760 L482,761 L482,764 L481,765 L481,769 L480,770 L480,772 L478,774 L466,774 L466,776 L482,776 L486,773 L486,772 L487,771 L487,768 L488,767 L488,764 L489,763 L489,760 L490,759 L490,755 L491,754 L491,751 L492,750 L493,743 L494,742 L494,738 L497,734 L499,734 Z" fill="rgb(36,176,90)" />
<path d="M1015,724 L1012,724 L1012,727 L1010,730 L990,730 L989,736 L988,737 L988,741 L987,742 L987,745 L985,750 L985,754 L984,755 L984,758 L983,759 L983,762 L982,763 L982,766 L981,767 L981,771 L979,774 L965,774 L965,776 L982,776 L986,772 L987,766 L988,765 L988,762 L989,761 L989,758 L990,757 L990,753 L991,752 L991,749 L992,748 L992,745 L994,740 L994,737 L998,733 L1011,733 L1012,732 L1014,732 L1016,730 L1016,725 Z" fill="rgb(36,176,90)" />
<path d="M879,727 L876,724 L874,724 L874,733 L869,751 L869,755 L866,760 L835,760 L834,761 L834,765 L864,765 L865,766 L865,772 L863,774 L822,774 L822,776 L866,776 L868,775 L870,772 L868,764 L874,758 L879,737 Z" fill="rgb(36,176,90)" />
<path d="M525,724 L522,724 L522,733 L521,734 L521,738 L520,739 L520,742 L519,743 L519,746 L518,747 L518,750 L517,751 L517,755 L516,756 L516,759 L515,760 L515,763 L514,764 L514,768 L513,769 L513,772 L511,774 L498,774 L498,776 L515,776 L518,774 L518,773 L520,770 L520,767 L521,766 L521,763 L522,762 L522,758 L523,757 L523,754 L524,753 L524,750 L525,749 L525,746 L526,745 L526,741 L527,740 L527,737 L528,736 L528,728 Z" fill="rgb(36,176,90)" />
<path d="M953,724 L949,723 L949,727 L948,728 L948,731 L946,736 L946,740 L945,741 L945,744 L943,749 L943,753 L942,754 L941,761 L938,768 L935,771 L927,774 L895,774 L895,776 L934,776 L939,774 L944,769 L946,764 L946,761 L947,760 L947,757 L949,752 L949,748 L950,747 L950,744 L952,739 L952,735 L954,730 L954,726 Z" fill="rgb(36,176,90)" />
<path d="M919,723 L917,723 L916,724 L916,728 L915,729 L915,732 L914,733 L914,736 L913,737 L913,740 L912,741 L912,745 L911,746 L911,749 L910,750 L910,753 L909,754 L909,757 L908,758 L908,762 L907,763 L907,765 L914,765 L914,758 L915,757 L915,754 L916,753 L916,749 L917,748 L917,745 L918,744 L918,741 L919,740 L919,737 L920,736 L920,732 L921,731 L921,726 Z" fill="rgb(36,176,90)" />
<path d="M675,725 L673,723 L671,723 L670,725 L669,733 L668,734 L668,737 L667,738 L667,741 L665,746 L665,750 L664,751 L664,754 L662,759 L662,763 L660,767 L655,772 L653,773 L649,773 L648,774 L617,774 L617,776 L656,776 L661,774 L666,769 L668,764 L668,761 L670,756 L670,752 L671,751 L671,748 L673,743 L673,739 L675,734 L675,730 L676,729 Z" fill="rgb(36,176,90)" />
<path d="M641,723 L638,723 L638,725 L637,726 L637,729 L636,730 L636,733 L635,734 L635,738 L634,739 L634,742 L633,743 L633,746 L632,747 L632,750 L631,751 L631,755 L630,756 L630,759 L629,760 L629,765 L636,765 L636,757 L637,756 L637,753 L638,752 L638,749 L639,748 L639,745 L640,744 L640,740 L641,739 L641,736 L642,735 L642,732 L643,731 L643,726 Z" fill="rgb(36,176,90)" />
<path d="M601,727 L597,723 L595,723 L596,730 L594,735 L594,739 L593,740 L593,743 L591,748 L591,752 L590,753 L590,756 L588,761 L587,769 L586,770 L586,772 L584,774 L544,774 L544,776 L588,776 L590,775 L594,767 L594,763 L595,762 L595,759 L597,754 L597,750 L598,749 L598,746 L599,745 L599,742 L601,737 Z" fill="rgb(36,176,90)" />
<path d="M811,711 L808,711 L808,714 L806,717 L786,717 L786,722 L800,722 L801,723 L800,729 L799,730 L783,730 L780,742 L780,746 L777,755 L777,759 L774,768 L774,772 L772,774 L759,774 L759,776 L775,776 L779,773 L781,768 L781,764 L788,736 L791,733 L800,733 L805,730 L805,722 L807,720 L811,719 L813,716 L813,713 Z" fill="rgb(36,176,90)" />
<path d="M746,711 L743,711 L742,715 L740,717 L721,717 L720,718 L720,722 L734,722 L735,723 L734,729 L733,730 L717,730 L717,734 L713,747 L713,751 L710,760 L708,772 L706,774 L693,774 L693,776 L709,776 L714,772 L719,752 L719,748 L723,735 L726,733 L734,733 L739,730 L740,728 L739,722 L747,717 Z" fill="rgb(36,176,90)" />
<path d="M494,710 L494,713 L493,714 L493,717 L492,718 L492,722 L500,722 L500,720 L499,719 L499,713 L498,712 L498,711 L497,711 L496,710 Z" fill="rgb(36,176,90)" />
<path d="M457,710 L455,710 L454,716 L452,718 L427,718 L427,720 L426,721 L426,725 L425,726 L425,729 L424,730 L424,733 L423,734 L423,737 L422,738 L422,741 L421,742 L421,745 L420,746 L420,749 L419,750 L419,753 L418,754 L418,757 L417,758 L416,764 L424,764 L424,757 L425,756 L425,753 L426,752 L426,749 L427,748 L427,745 L428,744 L428,741 L429,740 L429,737 L430,736 L430,733 L431,732 L431,729 L432,728 L433,724 L437,721 L455,721 L457,720 L460,717 L460,713 Z" fill="rgb(36,176,90)" />
<path d="M74,677 L214,677 L217,673 L217,605 L220,601 L391,601 L391,598 L211,598 L209,675 Z" fill="rgb(36,176,90)" />
<path d="M913,635 L919,635 L919,631 L918,630 L918,594 L919,591 L921,589 L924,588 L966,588 L969,589 L969,586 L968,585 L913,585 Z" fill="rgb(36,176,90)" />
<path d="M1018,550 L1013,547 L1011,675 L688,677 L1015,677 L1018,674 Z" fill="rgb(36,176,90)" />
<path d="M975,473 L972,470 L970,470 L970,519 L968,521 L917,521 L917,523 L919,524 L971,524 L973,523 L975,520 Z" fill="rgb(36,176,90)" />
<path d="M740,470 L740,622 L746,622 L746,476 L745,473 L742,470 Z" fill="rgb(36,176,90)" />
<path d="M627,472 L622,470 L621,675 L398,677 L625,677 L628,673 Z" fill="rgb(36,176,90)" />
<path d="M536,470 L536,622 L542,622 L542,474 L540,471 Z" fill="rgb(36,176,90)" />
<path d="M450,470 L450,622 L456,622 L456,475 L452,470 Z" fill="rgb(36,176,90)" />
<path d="M333,473 L330,470 L327,470 L327,519 L325,521 L276,521 L276,523 L278,524 L329,524 L333,521 L333,518 L334,517 L334,476 Z" fill="rgb(36,176,90)" />
<path d="M211,470 L211,545 L218,545 L218,543 L217,542 L217,474 L214,470 Z" fill="rgb(36,176,90)" />
<path d="M333,410 L330,407 L327,407 L327,456 L326,457 L275,457 L275,459 L279,461 L327,461 L332,459 L334,454 L334,413 Z" fill="rgb(36,176,90)" />
<path d="M913,470 L913,520 L968,520 L969,519 L969,470 Z" fill="rgb(0,1,253)" />
<path d="M270,470 L270,519 L274,519 L275,520 L325,520 L326,519 L326,470 Z" fill="rgb(0,1,253)" />
<path d="M270,407 L270,456 L326,456 L326,407 L325,406 L271,406 Z" fill="rgb(0,1,253)" />
</svg>