<svg xmlns="http://www.w3.org/2000/svg" viewBox="0 0 1080 1080" width="1080" height="1080">
<path d="M180,670 L181,748 L400,748 L403,628 L676,628 L678,748 L899,747 L899,670 L765,668 L764,430 L677,431 L675,550 L403,550 L401,430 L314,430 L314,668 Z" fill="rgb(255,255,255)" />
<path d="M910,676 L905,669 L901,668 L901,747 L899,749 L684,749 L684,751 L690,754 L900,754 L905,752 L910,745 Z" fill="rgb(35,177,88)" />
<path d="M187,751 L408,752 L413,743 L413,640 L419,634 L676,635 L676,630 L403,629 L401,749 Z" fill="rgb(35,177,88)" />
<path d="M766,429 L766,667 L780,668 L776,661 L776,439 L774,433 Z" fill="rgb(35,177,88)" />
<path d="M592,432 L587,429 L584,429 L583,509 L502,509 L502,511 L506,514 L589,513 L594,506 L594,436 Z" fill="rgb(35,177,88)" />
<path d="M403,429 L403,548 L417,548 L417,546 L413,542 L413,438 L411,433 L408,430 Z" fill="rgb(35,177,88)" />
<path d="M593,335 L589,331 L584,330 L584,409 L582,411 L502,411 L502,413 L509,416 L584,416 L591,413 L594,408 Z" fill="rgb(35,177,88)" />
<path d="M495,431 L496,508 L583,508 L583,430 Z" fill="rgb(0,1,253)" />
<path d="M495,333 L496,409 L502,410 L583,409 L582,331 L497,331 Z" fill="rgb(0,1,253)" />
</svg>