<svg xmlns="http://www.w3.org/2000/svg" xmlns:xlink="http://www.w3.org/1999/xlink" width="1123" zoomAndPan="magnify" viewBox="0 0 842.25 842.249997" height="1123" preserveAspectRatio="xMidYMid meet" version="1.0"><defs><clipPath id="16ae3339d8"><path d="M 165.820312 148 L 323 148 L 323 310 L 165.820312 310 Z M 165.820312 148 " clip-rule="nonzero"/></clipPath><clipPath id="7efae6e8b2"><path d="M 320.726562 212.796875 C 320.726562 212.789062 320.722656 212.78125 320.722656 212.773438 C 313.863281 178.824219 285.996094 152.636719 251.492188 148.761719 C 248.574219 148.433594 245.605469 148.261719 242.597656 148.261719 L 242.546875 148.261719 C 206.242188 148.28125 175.609375 172.902344 165.992188 206.566406 C 179.671875 206.5 194.066406 206.464844 207.222656 206.507812 L 250.523438 206.507812 C 264.847656 206.507812 276.460938 218.128906 276.460938 232.453125 C 276.460938 239.621094 273.558594 246.097656 268.867188 250.796875 C 264.167969 255.492188 257.691406 258.390625 250.523438 258.390625 L 245.425781 258.390625 C 244.632812 258.421875 244.660156 258.414062 240.835938 258.542969 L 168.324219 258.542969 C 179.9375 288.617188 208.8125 309.921875 242.597656 309.921875 C 256.453125 309.921875 269.480469 306.339844 280.832031 300.042969 C 300.628906 289.058594 315.332031 269.808594 320.414062 246.871094 C 321.679688 241.148438 322.347656 235.195312 322.347656 229.085938 C 322.347656 223.511719 321.792969 218.058594 320.726562 212.796875 " clip-rule="nonzero"/></clipPath><clipPath id="3e80d623c1"><path d="M 0.910156 0.0625 L 157.488281 0.0625 L 157.488281 162 L 0.910156 162 Z M 0.910156 0.0625 " clip-rule="nonzero"/></clipPath><clipPath id="aa7ea857fb"><path d="M 155.726562 64.796875 C 155.726562 64.789062 155.722656 64.78125 155.722656 64.773438 C 148.863281 30.824219 120.996094 4.636719 86.492188 0.761719 C 83.574219 0.433594 80.605469 0.261719 77.597656 0.261719 L 77.546875 0.261719 C 41.242188 0.28125 10.609375 24.902344 0.992188 58.566406 C 14.671875 58.5 29.066406 58.464844 42.222656 58.507812 L 85.523438 58.507812 C 99.847656 58.507812 111.460938 70.128906 111.460938 84.453125 C 111.460938 91.621094 108.558594 98.097656 103.867188 102.796875 C 99.167969 107.492188 92.691406 110.390625 85.523438 110.390625 L 80.425781 110.390625 C 79.632812 110.421875 79.660156 110.414062 75.835938 110.542969 L 3.324219 110.542969 C 14.9375 140.617188 43.8125 161.921875 77.597656 161.921875 C 91.453125 161.921875 104.480469 158.339844 115.832031 152.042969 C 135.628906 141.058594 150.332031 121.808594 155.414062 98.871094 C 156.679688 93.148438 157.347656 87.195312 157.347656 81.085938 C 157.347656 75.511719 156.792969 70.058594 155.726562 64.796875 " clip-rule="nonzero"/></clipPath><clipPath id="a8edde770f"><rect x="0" width="158" y="0" height="162"/></clipPath><clipPath id="0721693a6a"><path d="M 4.113281 4.222656 L 242.925781 4.222656 L 242.925781 207 L 4.113281 207 Z M 4.113281 4.222656 " clip-rule="nonzero"/></clipPath><clipPath id="13ac01ee59"><path d="M 115.726562 4.230469 L 48.15625 4.230469 L 4.121094 56.953125 L 84.8125 56.953125 C 97.234375 56.953125 107.300781 67.019531 107.300781 79.441406 L 107.300781 206.933594 C 111.132812 207.011719 136.941406 206.71875 165.992188 206.566406 C 175.609375 172.902344 206.242188 148.28125 242.546875 148.261719 C 239.128906 148.171875 235.890625 148.191406 232.898438 148.261719 L 175.324219 148.261719 L 175.324219 105.222656 C 141.238281 83.894531 117.984375 46.847656 115.726562 4.230469 " clip-rule="nonzero"/></clipPath><clipPath id="0fc9e54375"><path d="M 0.113281 0.222656 L 238.640625 0.222656 L 238.640625 203 L 0.113281 203 Z M 0.113281 0.222656 " clip-rule="nonzero"/></clipPath><clipPath id="ee01484001"><path d="M 111.726562 0.230469 L 44.15625 0.230469 L 0.121094 52.953125 L 80.8125 52.953125 C 93.234375 52.953125 103.300781 63.019531 103.300781 75.441406 L 103.300781 202.933594 C 107.132812 203.011719 132.941406 202.71875 161.992188 202.566406 C 171.609375 168.902344 202.242188 144.28125 238.546875 144.261719 C 235.128906 144.171875 231.890625 144.191406 228.898438 144.261719 L 171.324219 144.261719 L 171.324219 101.222656 C 137.238281 79.894531 113.984375 42.847656 111.726562 0.230469 " clip-rule="nonzero"/></clipPath><clipPath id="80466ffe9c"><rect x="0" width="239" y="0" height="203"/></clipPath><clipPath id="b30a689c08"><path d="M 115.660156 4.222656 L 334 4.222656 L 334 105.289062 L 115.660156 105.289062 Z M 115.660156 4.222656 " clip-rule="nonzero"/></clipPath><clipPath id="bd0ae93bdc"><path d="M 197.816406 56.953125 L 289.84375 56.953125 L 333.878906 4.230469 L 115.726562 4.230469 C 117.984375 46.847656 141.238281 83.894531 175.324219 105.222656 L 175.324219 79.441406 C 175.324219 67.019531 185.394531 56.953125 197.816406 56.953125 " clip-rule="nonzero"/></clipPath><clipPath id="75631e965d"><path d="M 0.660156 0.222656 L 219 0.222656 L 219 101.289062 L 0.660156 101.289062 Z M 0.660156 0.222656 " clip-rule="nonzero"/></clipPath><clipPath id="40113a9d40"><path d="M 82.816406 52.953125 L 174.84375 52.953125 L 218.878906 0.230469 L 0.726562 0.230469 C 2.984375 42.847656 26.238281 79.894531 60.324219 101.222656 L 60.324219 75.441406 C 60.324219 63.019531 70.394531 52.953125 82.816406 52.953125 " clip-rule="nonzero"/></clipPath><clipPath id="d98a23abed"><rect x="0" width="219" y="0" height="102"/></clipPath><clipPath id="c8b30f36ad"><path d="M 107 258.007812 L 332 258.007812 L 332 462.382812 L 107 462.382812 Z M 107 258.007812 " clip-rule="nonzero"/></clipPath><clipPath id="b2df81916c"><path d="M 292.609375 315.207031 C 289.722656 311.070312 284.257812 303.777344 280.832031 300.042969 C 269.480469 306.339844 256.453125 309.921875 242.597656 309.921875 C 208.8125 309.921875 179.9375 288.617188 168.324219 258.542969 L 144.53125 258.542969 C 153.375 273.847656 158.445312 291.617188 158.445312 310.566406 C 158.445312 348.726562 137.910156 382.085938 107.300781 400.210938 L 107.300781 462.378906 L 175.324219 462.378906 L 175.324219 314.210938 L 219.644531 314.210938 C 227.667969 314.210938 235.082031 318.476562 239.097656 325.417969 C 248.972656 342.457031 266.65625 372.976562 267.210938 373.921875 L 331.546875 373.921875 C 324.46875 363.117188 299.617188 324.464844 292.609375 315.207031 " clip-rule="nonzero"/></clipPath><clipPath id="cab5e2570b"><path d="M 0.160156 0.363281 L 224.601562 0.363281 L 224.601562 204.382812 L 0.160156 204.382812 Z M 0.160156 0.363281 " clip-rule="nonzero"/></clipPath><clipPath id="3cd02d12ca"><path d="M 185.609375 57.207031 C 182.722656 53.070312 177.257812 45.777344 173.832031 42.042969 C 162.480469 48.339844 149.453125 51.921875 135.597656 51.921875 C 101.8125 51.921875 72.9375 30.617188 61.324219 0.542969 L 37.53125 0.542969 C 46.375 15.847656 51.445312 33.617188 51.445312 52.566406 C 51.445312 90.726562 30.910156 124.085938 0.300781 142.210938 L 0.300781 204.378906 L 68.324219 204.378906 L 68.324219 56.210938 L 112.644531 56.210938 C 120.667969 56.210938 128.082031 60.476562 132.097656 67.417969 C 141.972656 84.457031 159.65625 114.976562 160.210938 115.921875 L 224.546875 115.921875 C 217.46875 105.117188 192.617188 66.464844 185.609375 57.207031 " clip-rule="nonzero"/></clipPath><clipPath id="2009c6e893"><rect x="0" width="225" y="0" height="205"/></clipPath><clipPath id="3200bed5c2"><path d="M 4.113281 258.007812 L 159 258.007812 L 159 400.25 L 4.113281 400.25 Z M 4.113281 258.007812 " clip-rule="nonzero"/></clipPath><clipPath id="330388c51e"><path d="M 158.445312 310.566406 C 158.445312 291.617188 153.375 273.847656 144.53125 258.542969 L 50.441406 258.542969 L 4.121094 314.046875 L 84.8125 314.046875 C 97.226562 314.046875 107.300781 324.113281 107.300781 336.535156 L 107.300781 400.210938 C 137.917969 382.078125 158.445312 348.726562 158.445312 310.566406 " clip-rule="nonzero"/></clipPath><clipPath id="eb5379fcb3"><path d="M 0.113281 0.363281 L 154.476562 0.363281 L 154.476562 142.25 L 0.113281 142.25 Z M 0.113281 0.363281 " clip-rule="nonzero"/></clipPath><clipPath id="99b1c4fb5e"><path d="M 154.445312 52.566406 C 154.445312 33.617188 149.375 15.847656 140.53125 0.542969 L 46.441406 0.542969 L 0.121094 56.046875 L 80.8125 56.046875 C 93.226562 56.046875 103.300781 66.113281 103.300781 78.535156 L 103.300781 142.210938 C 133.917969 124.078125 154.445312 90.726562 154.445312 52.566406 " clip-rule="nonzero"/></clipPath><clipPath id="a172eecd35"><rect x="0" width="155" y="0" height="143"/></clipPath><clipPath id="d9949a0aee"><path d="M 384.398438 165.394531 L 456.667969 165.394531 L 456.667969 303.746094 L 384.398438 303.746094 Z M 384.398438 165.394531 " clip-rule="nonzero"/></clipPath><clipPath id="eb824942a0"><path d="M 403.757812 238.957031 L 415.363281 238.957031 C 423.886719 238.957031 429.660156 236.964844 432.671875 232.960938 C 435.6875 228.957031 437.191406 221.648438 437.191406 211.027344 C 437.191406 200.140625 435.617188 192.734375 432.46875 188.800781 C 429.320312 184.863281 423.363281 182.898438 414.574219 182.898438 L 403.757812 182.898438 Z M 388.414062 165.394531 L 414.972656 165.394531 C 430.175781 165.394531 440.933594 168.835938 447.222656 175.726562 C 453.511719 182.613281 456.660156 194.375 456.660156 211.035156 C 456.660156 235.433594 448.84375 249.601562 433.210938 253.539062 L 454.847656 299.371094 C 456.285156 302.242188 455.507812 303.683594 452.5 303.683594 L 440.582031 303.683594 C 438.234375 303.683594 436.601562 302.695312 435.695312 300.699219 L 414.972656 255.871094 L 403.757812 255.871094 L 403.757812 300.128906 C 403.757812 302.492188 402.582031 303.667969 400.21875 303.667969 L 388.414062 303.667969 C 385.925781 303.667969 384.679688 302.492188 384.679688 300.128906 L 384.679688 168.933594 C 384.679688 166.570312 385.925781 165.394531 388.414062 165.394531 " clip-rule="nonzero"/></clipPath><clipPath id="3b13370f4b"><path d="M 0.59375 0.394531 L 72.667969 0.394531 L 72.667969 138.683594 L 0.59375 138.683594 Z M 0.59375 0.394531 " clip-rule="nonzero"/></clipPath><clipPath id="c64dd790d6"><path d="M 19.757812 73.957031 L 31.363281 73.957031 C 39.886719 73.957031 45.660156 71.964844 48.671875 67.960938 C 51.6875 63.957031 53.191406 56.648438 53.191406 46.027344 C 53.191406 35.140625 51.617188 27.734375 48.46875 23.800781 C 45.320312 19.863281 39.363281 17.898438 30.574219 17.898438 L 19.757812 17.898438 Z M 4.414062 0.394531 L 30.972656 0.394531 C 46.175781 0.394531 56.933594 3.835938 63.222656 10.726562 C 69.511719 17.613281 72.660156 29.375 72.660156 46.035156 C 72.660156 70.433594 64.84375 84.601562 49.210938 88.539062 L 70.847656 134.371094 C 72.285156 137.242188 71.507812 138.683594 68.5 138.683594 L 56.582031 138.683594 C 54.234375 138.683594 52.601562 137.695312 51.695312 135.699219 L 30.972656 90.871094 L 19.757812 90.871094 L 19.757812 135.128906 C 19.757812 137.492188 18.582031 138.667969 16.21875 138.667969 L 4.414062 138.667969 C 1.925781 138.667969 0.679688 137.492188 0.679688 135.128906 L 0.679688 3.933594 C 0.679688 1.570312 1.925781 0.394531 4.414062 0.394531 " clip-rule="nonzero"/></clipPath><clipPath id="99f7d22919"><rect x="0" width="73" y="0" height="139"/></clipPath><clipPath id="581d0d1905"><path d="M 472.722656 166.179688 L 491.359375 166.179688 L 491.359375 303.695312 L 472.722656 303.695312 Z M 472.722656 166.179688 " clip-rule="nonzero"/></clipPath><clipPath id="3e82bd82d4"><path d="M 490.894531 200.996094 L 490.894531 300.324219 C 490.894531 302.558594 489.777344 303.667969 487.550781 303.667969 L 476.535156 303.667969 C 474.304688 303.667969 473.195312 302.558594 473.195312 300.324219 L 473.195312 200.996094 C 473.195312 198.769531 474.304688 197.652344 476.535156 197.652344 L 487.550781 197.652344 C 489.777344 197.652344 490.894531 198.769531 490.894531 200.996094 M 491.289062 169.523438 L 491.289062 182.703125 C 491.289062 184.9375 490.171875 186.046875 487.945312 186.046875 L 476.140625 186.046875 C 473.90625 186.046875 472.796875 184.9375 472.796875 182.703125 L 472.796875 169.523438 C 472.796875 167.296875 473.90625 166.179688 476.140625 166.179688 L 487.9375 166.179688 C 490.164062 166.179688 491.28125 167.296875 491.28125 169.523438 " clip-rule="nonzero"/></clipPath><clipPath id="bbd736536d"><path d="M 0.722656 0.179688 L 19.300781 0.179688 L 19.300781 137.683594 L 0.722656 137.683594 Z M 0.722656 0.179688 " clip-rule="nonzero"/></clipPath><clipPath id="f608f51339"><path d="M 18.894531 34.996094 L 18.894531 134.324219 C 18.894531 136.558594 17.777344 137.667969 15.550781 137.667969 L 4.535156 137.667969 C 2.304688 137.667969 1.195312 136.558594 1.195312 134.324219 L 1.195312 34.996094 C 1.195312 32.769531 2.304688 31.652344 4.535156 31.652344 L 15.550781 31.652344 C 17.777344 31.652344 18.894531 32.769531 18.894531 34.996094 M 19.289062 3.523438 L 19.289062 16.703125 C 19.289062 18.9375 18.171875 20.046875 15.945312 20.046875 L 4.140625 20.046875 C 1.90625 20.046875 0.796875 18.9375 0.796875 16.703125 L 0.796875 3.523438 C 0.796875 1.296875 1.90625 0.179688 4.140625 0.179688 L 15.9375 0.179688 C 18.164062 0.179688 19.28125 1.296875 19.28125 3.523438 " clip-rule="nonzero"/></clipPath><clipPath id="33333f1e29"><rect x="0" width="20" y="0" height="138"/></clipPath><clipPath id="9a2d8096c9"><path d="M 384.660156 326.539062 L 449.085938 326.539062 L 449.085938 464.980469 L 384.660156 464.980469 Z M 384.660156 326.539062 " clip-rule="nonzero"/></clipPath><clipPath id="abb5784cfb"><path d="M 384.679688 340.527344 L 384.679688 330.097656 C 384.679688 327.738281 385.847656 326.558594 388.179688 326.558594 L 445.386719 326.558594 C 447.84375 326.558594 449.082031 327.738281 449.082031 330.097656 L 449.082031 340.527344 C 449.082031 342.886719 447.84375 344.0625 445.386719 344.0625 L 426.128906 344.0625 L 426.128906 461.292969 C 426.128906 463.65625 424.957031 464.832031 422.628906 464.832031 L 410.949219 464.832031 C 408.617188 464.832031 407.445312 463.65625 407.445312 461.292969 L 407.445312 344.0625 L 388.179688 344.0625 C 385.847656 344.0625 384.679688 342.886719 384.679688 340.527344 " clip-rule="nonzero"/></clipPath><clipPath id="4e308e5919"><path d="M 0.660156 0.539062 L 65.085938 0.539062 L 65.085938 138.980469 L 0.660156 138.980469 Z M 0.660156 0.539062 " clip-rule="nonzero"/></clipPath><clipPath id="1a085b0f28"><path d="M 0.679688 14.527344 L 0.679688 4.097656 C 0.679688 1.738281 1.847656 0.558594 4.179688 0.558594 L 61.386719 0.558594 C 63.84375 0.558594 65.082031 1.738281 65.082031 4.097656 L 65.082031 14.527344 C 65.082031 16.886719 63.84375 18.0625 61.386719 18.0625 L 42.128906 18.0625 L 42.128906 135.292969 C 42.128906 137.65625 40.957031 138.832031 38.628906 138.832031 L 26.949219 138.832031 C 24.617188 138.832031 23.445312 137.65625 23.445312 135.292969 L 23.445312 18.0625 L 4.179688 18.0625 C 1.847656 18.0625 0.679688 16.886719 0.679688 14.527344 " clip-rule="nonzero"/></clipPath><clipPath id="0c4485a2b8"><rect x="0" width="66" y="0" height="139"/></clipPath><clipPath id="112478f2a5"><path d="M 449.621094 357 L 513.515625 357 L 513.515625 466.578125 L 449.621094 466.578125 Z M 449.621094 357 " clip-rule="nonzero"/></clipPath><clipPath id="9d07047c48"><path d="M 493.550781 380.257812 C 491.535156 375.015625 487.9375 372.394531 482.75 372.394531 C 477.5625 372.394531 473.699219 374.988281 471.167969 380.160156 C 468.632812 385.332031 467.238281 393.832031 466.984375 405.632812 L 496.558594 405.632812 L 496.558594 403.863281 C 496.558594 393.375 495.554688 385.503906 493.542969 380.265625 M 490.140625 451.078125 C 494.8125 451.078125 500.195312 450.09375 506.289062 448.132812 C 508.882812 447.480469 510.179688 448.394531 510.179688 450.882812 L 510.179688 459.339844 C 510.179688 461.4375 509.078125 462.875 506.875 463.664062 C 501.421875 465.5 495.457031 466.414062 488.972656 466.414062 C 475.222656 466.414062 465.230469 462.058594 459.007812 453.332031 C 452.785156 444.609375 449.675781 430.738281 449.675781 411.726562 C 449.675781 393.105469 452.394531 379.371094 457.847656 370.519531 C 463.296875 361.664062 471.660156 357.242188 482.945312 357.242188 C 493.84375 357.242188 501.65625 361.304688 506.394531 369.441406 C 511.132812 377.574219 513.492188 389.636719 513.492188 405.632812 L 513.492188 416.449219 C 513.492188 418.8125 512.253906 419.988281 509.796875 419.988281 L 466.992188 419.988281 C 467.382812 430.613281 469.449219 438.445312 473.214844 443.492188 C 476.976562 448.535156 482.621094 451.0625 490.140625 451.0625 " clip-rule="nonzero"/></clipPath><clipPath id="58318ded14"><path d="M 0.621094 0.15625 L 64.515625 0.15625 L 64.515625 109.5 L 0.621094 109.5 Z M 0.621094 0.15625 " clip-rule="nonzero"/></clipPath><clipPath id="0a0291dc0c"><path d="M 44.550781 23.257812 C 42.535156 18.015625 38.9375 15.394531 33.75 15.394531 C 28.5625 15.394531 24.699219 17.988281 22.167969 23.160156 C 19.632812 28.332031 18.238281 36.832031 17.984375 48.632812 L 47.558594 48.632812 L 47.558594 46.863281 C 47.558594 36.375 46.554688 28.503906 44.542969 23.265625 M 41.140625 94.078125 C 45.8125 94.078125 51.195312 93.09375 57.289062 91.132812 C 59.882812 90.480469 61.179688 91.394531 61.179688 93.882812 L 61.179688 102.339844 C 61.179688 104.4375 60.078125 105.875 57.875 106.664062 C 52.421875 108.5 46.457031 109.414062 39.972656 109.414062 C 26.222656 109.414062 16.230469 105.058594 10.007812 96.332031 C 3.785156 87.609375 0.675781 73.738281 0.675781 54.726562 C 0.675781 36.105469 3.394531 22.371094 8.847656 13.519531 C 14.296875 4.664062 22.660156 0.242188 33.945312 0.242188 C 44.84375 0.242188 52.65625 4.304688 57.394531 12.441406 C 62.132812 20.574219 64.492188 32.636719 64.492188 48.632812 L 64.492188 59.449219 C 64.492188 61.8125 63.253906 62.988281 60.796875 62.988281 L 17.992188 62.988281 C 18.382812 73.613281 20.449219 81.445312 24.214844 86.492188 C 27.976562 91.535156 33.621094 94.0625 41.140625 94.0625 " clip-rule="nonzero"/></clipPath><clipPath id="0a80c655fc"><rect x="0" width="65" y="0" height="110"/></clipPath><clipPath id="4e5956b0d2"><path d="M 384.648438 4.195312 L 448 4.195312 L 448 139 L 384.648438 139 Z M 384.648438 4.195312 " clip-rule="nonzero"/></clipPath><clipPath id="f52bdd03c6"><path d="M 384.679688 17.789062 L 384.679688 7.671875 C 384.679688 5.375 385.828125 4.230469 388.121094 4.230469 L 444.277344 4.230469 C 446.691406 4.230469 447.90625 5.375 447.90625 7.671875 L 447.90625 17.789062 C 447.90625 20.085938 446.691406 21.230469 444.277344 21.230469 L 425.371094 21.230469 L 425.371094 135.082031 C 425.371094 137.375 424.222656 138.523438 421.929688 138.523438 L 410.46875 138.523438 C 408.175781 138.523438 407.027344 137.375 407.027344 135.082031 L 407.027344 21.230469 L 388.121094 21.230469 C 385.828125 21.230469 384.679688 20.085938 384.679688 17.789062 " clip-rule="nonzero"/></clipPath><clipPath id="416e4a32ea"><path d="M 0.648438 0.195312 L 64 0.195312 L 64 134.710938 L 0.648438 134.710938 Z M 0.648438 0.195312 " clip-rule="nonzero"/></clipPath><clipPath id="a44459b4b0"><path d="M 0.679688 13.789062 L 0.679688 3.671875 C 0.679688 1.375 1.828125 0.230469 4.121094 0.230469 L 60.277344 0.230469 C 62.691406 0.230469 63.90625 1.375 63.90625 3.671875 L 63.90625 13.789062 C 63.90625 16.085938 62.691406 17.230469 60.277344 17.230469 L 41.371094 17.230469 L 41.371094 131.082031 C 41.371094 133.375 40.222656 134.523438 37.929688 134.523438 L 26.46875 134.523438 C 24.175781 134.523438 23.027344 133.375 23.027344 131.082031 L 23.027344 17.230469 L 4.121094 17.230469 C 1.828125 17.230469 0.679688 16.085938 0.679688 13.789062 " clip-rule="nonzero"/></clipPath><clipPath id="90dcbd8393"><rect x="0" width="64" y="0" height="135"/></clipPath><clipPath id="ee7bc7643a"><path d="M 450 35.507812 L 513.082031 35.507812 L 513.082031 140.0625 L 450 140.0625 Z M 450 35.507812 " clip-rule="nonzero"/></clipPath><clipPath id="aea8a6a571"><path d="M 450.199219 108.722656 L 450.199219 38.804688 C 450.199219 36.636719 451.277344 35.558594 453.445312 35.558594 L 464.144531 35.558594 C 466.308594 35.558594 467.390625 36.644531 467.390625 38.804688 L 467.390625 104.902344 C 467.390625 111.144531 468.3125 115.824219 470.164062 118.941406 C 472.015625 122.058594 475.222656 123.621094 479.8125 123.621094 C 484.902344 123.621094 488.851562 121.492188 491.65625 117.21875 C 494.457031 112.945312 495.851562 107.066406 495.851562 99.546875 L 495.851562 38.804688 C 495.851562 36.636719 496.933594 35.558594 499.097656 35.558594 L 509.796875 35.558594 C 511.964844 35.558594 513.042969 36.644531 513.042969 38.804688 L 513.042969 135.277344 C 513.042969 137.441406 511.957031 138.523438 509.796875 138.523438 L 499.675781 138.523438 C 497.382812 138.523438 496.234375 137.503906 496.234375 135.464844 L 496.046875 127.058594 C 491.96875 135.71875 484.96875 140.050781 475.035156 140.050781 C 466.757812 140.050781 460.542969 137.253906 456.414062 131.648438 C 452.285156 126.039062 450.199219 118.402344 450.199219 108.722656 " clip-rule="nonzero"/></clipPath><clipPath id="7b0b1552f3"><path d="M 0.0546875 0.507812 L 63.082031 0.507812 L 63.082031 105.0625 L 0.0546875 105.0625 Z M 0.0546875 0.507812 " clip-rule="nonzero"/></clipPath><clipPath id="a92713d411"><path d="M 0.199219 73.722656 L 0.199219 3.804688 C 0.199219 1.636719 1.277344 0.558594 3.445312 0.558594 L 14.144531 0.558594 C 16.308594 0.558594 17.390625 1.644531 17.390625 3.804688 L 17.390625 69.902344 C 17.390625 76.144531 18.3125 80.824219 20.164062 83.941406 C 22.015625 87.058594 25.222656 88.621094 29.8125 88.621094 C 34.902344 88.621094 38.851562 86.492188 41.65625 82.21875 C 44.457031 77.945312 45.851562 72.066406 45.851562 64.546875 L 45.851562 3.804688 C 45.851562 1.636719 46.933594 0.558594 49.097656 0.558594 L 59.796875 0.558594 C 61.964844 0.558594 63.042969 1.644531 63.042969 3.804688 L 63.042969 100.277344 C 63.042969 102.441406 61.957031 103.523438 59.796875 103.523438 L 49.675781 103.523438 C 47.382812 103.523438 46.234375 102.503906 46.234375 100.464844 L 46.046875 92.058594 C 41.96875 100.71875 34.96875 105.050781 25.035156 105.050781 C 16.757812 105.050781 10.542969 102.253906 6.414062 96.648438 C 2.285156 91.039062 0.199219 83.402344 0.199219 73.722656 " clip-rule="nonzero"/></clipPath><clipPath id="6eaa25722d"><rect x="0" width="64" y="0" height="106"/></clipPath><clipPath id="47f292e2e1"><path d="M 506.625 165.394531 L 577.238281 165.394531 L 577.238281 305.515625 L 506.625 305.515625 Z M 506.625 165.394531 " clip-rule="nonzero"/></clipPath><clipPath id="5625118590"><path d="M 559.730469 250.757812 C 559.730469 224.925781 553.636719 212.007812 541.441406 212.007812 C 535.40625 212.007812 531.109375 214.992188 528.554688 220.957031 C 525.996094 226.925781 524.714844 236.859375 524.714844 250.757812 C 524.714844 264.527344 525.996094 274.429688 528.554688 280.457031 C 531.109375 286.484375 535.40625 289.507812 541.441406 289.507812 C 553.636719 289.507812 559.730469 276.589844 559.730469 250.757812 M 559.925781 300.519531 L 559.730469 291.082031 C 558.285156 295.277344 555.601562 298.691406 551.664062 301.304688 C 547.730469 303.921875 543.015625 305.242188 537.503906 305.242188 C 527.144531 305.242188 519.40625 300.847656 514.292969 292.0625 C 509.183594 283.277344 506.625 269.511719 506.625 250.757812 C 506.625 214.308594 516.984375 196.078125 537.699219 196.078125 C 542.9375 196.078125 547.5625 197.457031 551.566406 200.207031 C 555.570312 202.960938 558.222656 206.242188 559.535156 210.042969 L 559.535156 168.738281 C 559.535156 166.511719 560.652344 165.394531 562.878906 165.394531 L 573.890625 165.394531 C 576.117188 165.394531 577.234375 166.511719 577.234375 168.738281 L 577.234375 300.324219 C 577.234375 302.558594 576.117188 303.667969 573.890625 303.667969 L 563.472656 303.667969 C 561.109375 303.667969 559.933594 302.617188 559.933594 300.519531 " clip-rule="nonzero"/></clipPath><clipPath id="c7544e6933"><path d="M 0.625 0.394531 L 71.238281 0.394531 L 71.238281 140.363281 L 0.625 140.363281 Z M 0.625 0.394531 " clip-rule="nonzero"/></clipPath><clipPath id="d8530cebb4"><path d="M 53.730469 85.757812 C 53.730469 59.925781 47.636719 47.007812 35.441406 47.007812 C 29.40625 47.007812 25.109375 49.992188 22.554688 55.957031 C 19.996094 61.925781 18.714844 71.859375 18.714844 85.757812 C 18.714844 99.527344 19.996094 109.429688 22.554688 115.457031 C 25.109375 121.484375 29.40625 124.507812 35.441406 124.507812 C 47.636719 124.507812 53.730469 111.589844 53.730469 85.757812 M 53.925781 135.519531 L 53.730469 126.082031 C 52.285156 130.277344 49.601562 133.691406 45.664062 136.304688 C 41.730469 138.921875 37.015625 140.242188 31.503906 140.242188 C 21.144531 140.242188 13.40625 135.847656 8.292969 127.0625 C 3.183594 118.277344 0.625 104.511719 0.625 85.757812 C 0.625 49.308594 10.984375 31.078125 31.699219 31.078125 C 36.9375 31.078125 41.5625 32.457031 45.566406 35.207031 C 49.570312 37.960938 52.222656 41.242188 53.535156 45.042969 L 53.535156 3.738281 C 53.535156 1.511719 54.652344 0.394531 56.878906 0.394531 L 67.890625 0.394531 C 70.117188 0.394531 71.234375 1.511719 71.234375 3.738281 L 71.234375 135.324219 C 71.234375 137.558594 70.117188 138.667969 67.890625 138.667969 L 57.472656 138.667969 C 55.109375 138.667969 53.933594 137.617188 53.933594 135.519531 " clip-rule="nonzero"/></clipPath><clipPath id="7d128d1050"><rect x="0" width="72" y="0" height="141"/></clipPath><clipPath id="6d9ad73287"><path d="M 526.140625 357.242188 L 578.679688 357.242188 L 578.679688 466.425781 L 526.140625 466.425781 Z M 526.140625 357.242188 " clip-rule="nonzero"/></clipPath><clipPath id="628596c534"><path d="M 534.605469 453.132812 C 528.960938 444.277344 526.140625 430.484375 526.140625 411.730469 C 526.140625 392.972656 528.894531 379.207031 534.410156 370.421875 C 539.929688 361.636719 548.519531 357.242188 560.191406 357.242188 C 565.640625 357.242188 570.507812 357.964844 574.785156 359.410156 C 576.992188 360.324219 578.09375 361.703125 578.09375 363.539062 L 578.09375 372.988281 C 578.09375 375.21875 576.855469 376 574.398438 375.347656 C 571.023438 374.296875 567.328125 373.773438 563.308594 373.773438 C 556.171875 373.773438 551.179688 376.621094 548.324219 382.328125 C 545.46875 388.03125 544.042969 397.835938 544.042969 411.734375 C 544.042969 425.632812 545.503906 435.46875 548.421875 441.242188 C 551.335938 447.015625 556.367188 449.894531 563.503906 449.894531 C 567.003906 449.894531 570.828125 449.367188 574.980469 448.320312 C 577.449219 447.53125 578.675781 448.320312 578.675781 450.679688 L 578.675781 460.117188 C 578.675781 461.957031 577.574219 463.265625 575.371094 464.054688 C 571.089844 465.628906 566.15625 466.414062 560.582031 466.414062 C 548.910156 466.414062 540.25 461.992188 534.605469 453.140625 " clip-rule="nonzero"/></clipPath><clipPath id="af6afdadb1"><path d="M 0.140625 0.242188 L 52.679688 0.242188 L 52.679688 109.425781 L 0.140625 109.425781 Z M 0.140625 0.242188 " clip-rule="nonzero"/></clipPath><clipPath id="b7f1d39d2d"><path d="M 8.605469 96.132812 C 2.960938 87.277344 0.140625 73.484375 0.140625 54.730469 C 0.140625 35.972656 2.894531 22.207031 8.410156 13.421875 C 13.929688 4.636719 22.519531 0.242188 34.191406 0.242188 C 39.640625 0.242188 44.507812 0.964844 48.785156 2.410156 C 50.992188 3.324219 52.09375 4.703125 52.09375 6.539062 L 52.09375 15.988281 C 52.09375 18.21875 50.855469 19 48.398438 18.347656 C 45.023438 17.296875 41.328125 16.773438 37.308594 16.773438 C 30.171875 16.773438 25.179688 19.621094 22.324219 25.328125 C 19.46875 31.03125 18.042969 40.835938 18.042969 54.734375 C 18.042969 68.632812 19.503906 78.46875 22.421875 84.242188 C 25.335938 90.015625 30.367188 92.894531 37.503906 92.894531 C 41.003906 92.894531 44.828125 92.367188 48.980469 91.320312 C 51.449219 90.53125 52.675781 91.320312 52.675781 93.679688 L 52.675781 103.117188 C 52.675781 104.957031 51.574219 106.265625 49.371094 107.054688 C 45.089844 108.628906 40.15625 109.414062 34.582031 109.414062 C 22.910156 109.414062 14.25 104.992188 8.605469 96.140625 " clip-rule="nonzero"/></clipPath><clipPath id="6a81c0ff36"><rect x="0" width="53" y="0" height="110"/></clipPath><clipPath id="08b50e2c1e"><path d="M 529.667969 34.027344 L 593.085938 34.027344 L 593.085938 138.574219 L 529.667969 138.574219 Z M 529.667969 34.027344 " clip-rule="nonzero"/></clipPath><clipPath id="98fa509330"><path d="M 593.085938 65.550781 L 593.085938 135.277344 C 593.085938 137.445312 592 138.523438 589.839844 138.523438 L 579.144531 138.523438 C 576.976562 138.523438 575.898438 137.445312 575.898438 135.277344 L 575.898438 68.796875 C 575.898438 62.6875 574.96875 58.101562 573.125 55.042969 C 571.28125 51.984375 568.125 50.453125 563.671875 50.453125 C 558.0625 50.453125 553.835938 52.621094 550.964844 56.945312 C 548.09375 61.273438 546.667969 67.261719 546.667969 74.898438 L 546.667969 135.261719 C 546.667969 137.429688 545.648438 138.507812 543.609375 138.507812 L 532.914062 138.507812 C 530.746094 138.507812 529.667969 137.429688 529.667969 135.261719 L 529.667969 38.804688 C 529.667969 36.644531 530.746094 35.558594 532.914062 35.558594 L 543.039062 35.558594 C 545.335938 35.558594 546.480469 36.578125 546.480469 38.617188 L 546.675781 47.019531 C 548.332031 43.578125 551.039062 40.558594 554.792969 37.949219 C 558.550781 35.339844 563.09375 34.027344 568.445312 34.027344 C 576.59375 34.027344 582.742188 36.863281 586.878906 42.53125 C 591.019531 48.199219 593.085938 55.875 593.085938 65.550781 " clip-rule="nonzero"/></clipPath><clipPath id="14ce91d411"><path d="M 0.667969 0.0273438 L 64.085938 0.0273438 L 64.085938 104.574219 L 0.667969 104.574219 Z M 0.667969 0.0273438 " clip-rule="nonzero"/></clipPath><clipPath id="4425a3c224"><path d="M 64.085938 31.550781 L 64.085938 101.277344 C 64.085938 103.445312 63 104.523438 60.839844 104.523438 L 50.144531 104.523438 C 47.976562 104.523438 46.898438 103.445312 46.898438 101.277344 L 46.898438 34.796875 C 46.898438 28.6875 45.96875 24.101562 44.125 21.042969 C 42.28125 17.984375 39.125 16.453125 34.671875 16.453125 C 29.0625 16.453125 24.835938 18.621094 21.964844 22.945312 C 19.09375 27.273438 17.667969 33.261719 17.667969 40.898438 L 17.667969 101.261719 C 17.667969 103.429688 16.648438 104.507812 14.609375 104.507812 L 3.914062 104.507812 C 1.746094 104.507812 0.667969 103.429688 0.667969 101.261719 L 0.667969 4.804688 C 0.667969 2.644531 1.746094 1.558594 3.914062 1.558594 L 14.039062 1.558594 C 16.335938 1.558594 17.480469 2.578125 17.480469 4.617188 L 17.675781 13.019531 C 19.332031 9.578125 22.039062 6.558594 25.792969 3.949219 C 29.550781 1.339844 34.09375 0.0273438 39.445312 0.0273438 C 47.59375 0.0273438 53.742188 2.863281 57.878906 8.53125 C 62.019531 14.199219 64.085938 21.875 64.085938 31.550781 " clip-rule="nonzero"/></clipPath><clipPath id="51d395265d"><rect x="0" width="65" y="0" height="105"/></clipPath><clipPath id="47cbd6c19b"><path d="M 609.898438 4.992188 L 627.855469 4.992188 L 627.855469 138.542969 L 609.898438 138.542969 Z M 609.898438 4.992188 " clip-rule="nonzero"/></clipPath><clipPath id="6c0cf63100"><path d="M 627.46875 38.804688 L 627.46875 135.277344 C 627.46875 137.441406 626.382812 138.523438 624.222656 138.523438 L 613.527344 138.523438 C 611.359375 138.523438 610.28125 137.441406 610.28125 135.277344 L 610.28125 38.804688 C 610.28125 36.636719 611.359375 35.558594 613.527344 35.558594 L 624.222656 35.558594 C 626.390625 35.558594 627.46875 36.636719 627.46875 38.804688 M 627.851562 8.238281 L 627.851562 21.035156 C 627.851562 23.203125 626.765625 24.28125 624.605469 24.28125 L 613.144531 24.28125 C 610.976562 24.289062 609.898438 23.210938 609.898438 21.035156 L 609.898438 8.238281 C 609.898438 6.082031 610.976562 4.992188 613.144531 4.992188 L 624.605469 4.992188 C 626.773438 4.992188 627.851562 6.082031 627.851562 8.238281 " clip-rule="nonzero"/></clipPath><clipPath id="51f7964add"><path d="M 0.898438 0.992188 L 18.855469 0.992188 L 18.855469 134.542969 L 0.898438 134.542969 Z M 0.898438 0.992188 " clip-rule="nonzero"/></clipPath><clipPath id="8a98598611"><path d="M 18.46875 34.804688 L 18.46875 131.277344 C 18.46875 133.441406 17.382812 134.523438 15.222656 134.523438 L 4.527344 134.523438 C 2.359375 134.523438 1.28125 133.441406 1.28125 131.277344 L 1.28125 34.804688 C 1.28125 32.636719 2.359375 31.558594 4.527344 31.558594 L 15.222656 31.558594 C 17.390625 31.558594 18.46875 32.636719 18.46875 34.804688 M 18.851562 4.238281 L 18.851562 17.035156 C 18.851562 19.203125 17.765625 20.28125 15.605469 20.28125 L 4.144531 20.28125 C 1.976562 20.289062 0.898438 19.210938 0.898438 17.035156 L 0.898438 4.238281 C 0.898438 2.082031 1.976562 0.992188 4.144531 0.992188 L 15.605469 0.992188 C 17.773438 0.992188 18.851562 2.082031 18.851562 4.238281 " clip-rule="nonzero"/></clipPath><clipPath id="ddcc92b3fc"><rect x="0" width="19" y="0" height="135"/></clipPath><clipPath id="68f0bbab97"><path d="M 592.296875 326.558594 L 657.542969 326.558594 L 657.542969 464.921875 L 592.296875 464.921875 Z M 592.296875 326.558594 " clip-rule="nonzero"/></clipPath><clipPath id="8db6289522"><path d="M 657.292969 389.695312 L 657.292969 461.488281 C 657.292969 463.722656 656.191406 464.832031 653.988281 464.832031 L 643.085938 464.832031 C 640.882812 464.832031 639.78125 463.722656 639.78125 461.488281 L 639.78125 393.039062 C 639.78125 380.453125 635.558594 374.15625 627.132812 374.15625 C 621.421875 374.15625 617.109375 376.386719 614.195312 380.839844 C 611.277344 385.292969 609.816406 391.464844 609.816406 399.328125 L 609.816406 461.480469 C 609.816406 463.714844 608.714844 464.824219 606.511719 464.824219 L 595.605469 464.824219 C 593.390625 464.824219 592.296875 463.714844 592.296875 461.480469 L 592.296875 329.902344 C 592.296875 327.675781 593.398438 326.558594 595.605469 326.558594 L 606.503906 326.558594 C 608.707031 326.558594 609.808594 327.675781 609.808594 329.902344 L 609.808594 370.226562 C 614.351562 361.574219 621.804688 357.242188 632.1875 357.242188 C 640.359375 357.242188 646.585938 360.1875 650.867188 366.09375 C 655.148438 372.003906 657.292969 379.867188 657.292969 389.695312 " clip-rule="nonzero"/></clipPath><clipPath id="fb78dce5d5"><path d="M 0.296875 0.558594 L 65.472656 0.558594 L 65.472656 138.921875 L 0.296875 138.921875 Z M 0.296875 0.558594 " clip-rule="nonzero"/></clipPath><clipPath id="dbdbe9f453"><path d="M 65.292969 63.695312 L 65.292969 135.488281 C 65.292969 137.722656 64.191406 138.832031 61.988281 138.832031 L 51.085938 138.832031 C 48.882812 138.832031 47.78125 137.722656 47.78125 135.488281 L 47.78125 67.039062 C 47.78125 54.453125 43.558594 48.15625 35.132812 48.15625 C 29.421875 48.15625 25.109375 50.386719 22.195312 54.839844 C 19.277344 59.292969 17.816406 65.464844 17.816406 73.328125 L 17.816406 135.480469 C 17.816406 137.714844 16.714844 138.824219 14.511719 138.824219 L 3.605469 138.824219 C 1.390625 138.824219 0.296875 137.714844 0.296875 135.480469 L 0.296875 3.902344 C 0.296875 1.675781 1.398438 0.558594 3.605469 0.558594 L 14.503906 0.558594 C 16.707031 0.558594 17.808594 1.675781 17.808594 3.902344 L 17.808594 44.226562 C 22.351562 35.574219 29.804688 31.242188 40.1875 31.242188 C 48.359375 31.242188 54.585938 34.1875 58.867188 40.09375 C 63.148438 46.003906 65.292969 53.867188 65.292969 63.695312 " clip-rule="nonzero"/></clipPath><clipPath id="8d0a7360da"><rect x="0" width="66" y="0" height="139"/></clipPath><clipPath id="dd87cc565f"><path d="M 592.777344 196.078125 L 657.542969 196.078125 L 657.542969 305.449219 L 592.777344 305.449219 Z M 592.777344 196.078125 " clip-rule="nonzero"/></clipPath><clipPath id="517e96825a"><path d="M 637.132812 219.09375 C 635.09375 213.84375 631.457031 211.222656 626.210938 211.222656 C 620.964844 211.222656 617.066406 213.816406 614.507812 218.996094 C 611.953125 224.175781 610.542969 232.660156 610.28125 244.460938 L 640.175781 244.460938 L 640.175781 242.691406 C 640.175781 232.203125 639.15625 224.332031 637.125 219.09375 M 633.683594 289.90625 C 638.40625 289.90625 643.84375 288.921875 650.011719 286.960938 C 652.636719 286.308594 653.949219 287.222656 653.949219 289.710938 L 653.949219 298.167969 C 653.949219 300.265625 652.832031 301.703125 650.605469 302.492188 C 645.09375 304.328125 639.058594 305.242188 632.507812 305.242188 C 618.609375 305.242188 608.511719 300.886719 602.214844 292.160156 C 595.917969 283.4375 592.777344 269.574219 592.777344 250.5625 C 592.777344 231.941406 595.527344 218.207031 601.039062 209.355469 C 606.546875 200.5 615.003906 196.078125 626.40625 196.078125 C 637.425781 196.078125 645.328125 200.140625 650.109375 208.277344 C 654.890625 216.410156 657.292969 228.472656 657.292969 244.46875 L 657.292969 255.285156 C 657.292969 257.648438 656.046875 258.824219 653.558594 258.824219 L 610.28125 258.824219 C 610.671875 269.449219 612.769531 277.28125 616.570312 282.332031 C 620.371094 287.386719 626.074219 289.90625 633.683594 289.90625 " clip-rule="nonzero"/></clipPath><clipPath id="6c81bab3b5"><path d="M 0.777344 0.078125 L 65.472656 0.078125 L 65.472656 109.363281 L 0.777344 109.363281 Z M 0.777344 0.078125 " clip-rule="nonzero"/></clipPath><clipPath id="976ac99016"><path d="M 45.132812 23.09375 C 43.09375 17.84375 39.457031 15.222656 34.210938 15.222656 C 28.964844 15.222656 25.066406 17.816406 22.507812 22.996094 C 19.953125 28.175781 18.542969 36.660156 18.28125 48.460938 L 48.175781 48.460938 L 48.175781 46.691406 C 48.175781 36.203125 47.15625 28.332031 45.125 23.09375 M 41.683594 93.90625 C 46.40625 93.90625 51.84375 92.921875 58.011719 90.960938 C 60.636719 90.308594 61.949219 91.222656 61.949219 93.710938 L 61.949219 102.167969 C 61.949219 104.265625 60.832031 105.703125 58.605469 106.492188 C 53.09375 108.328125 47.058594 109.242188 40.507812 109.242188 C 26.609375 109.242188 16.511719 104.886719 10.214844 96.160156 C 3.917969 87.4375 0.777344 73.574219 0.777344 54.5625 C 0.777344 35.941406 3.527344 22.207031 9.039062 13.355469 C 14.546875 4.5 23.003906 0.078125 34.40625 0.078125 C 45.425781 0.078125 53.328125 4.140625 58.109375 12.277344 C 62.890625 20.410156 65.292969 32.472656 65.292969 48.46875 L 65.292969 59.285156 C 65.292969 61.648438 64.046875 62.824219 61.558594 62.824219 L 18.28125 62.824219 C 18.671875 73.449219 20.769531 81.28125 24.570312 86.332031 C 28.371094 91.386719 34.074219 93.90625 41.683594 93.90625 " clip-rule="nonzero"/></clipPath><clipPath id="54515332a0"><rect x="0" width="66" y="0" height="110"/></clipPath><clipPath id="73df161f60"><path d="M 641.414062 34.03125 L 694.636719 34.03125 L 694.636719 140.242188 L 641.414062 140.242188 Z M 641.414062 34.03125 " clip-rule="nonzero"/></clipPath><clipPath id="a55ac04b3d"><path d="M 694.519531 111.207031 C 694.519531 130.433594 684.332031 140.054688 663.957031 140.054688 C 656.316406 140.054688 649.757812 139.222656 644.277344 137.570312 C 642.367188 136.933594 641.414062 135.726562 641.414062 133.945312 L 641.414062 124.574219 C 641.414062 122.277344 642.621094 121.515625 645.042969 122.277344 C 649.496094 123.9375 655.230469 124.761719 662.230469 124.761719 C 672.546875 124.761719 677.703125 120.171875 677.703125 111.003906 C 677.703125 106.679688 676.527344 103.269531 674.171875 100.785156 C 671.820312 98.304688 667.457031 95.027344 661.085938 90.949219 C 654.210938 86.625 649.210938 82.390625 646.089844 78.246094 C 642.972656 74.097656 641.414062 68.222656 641.414062 60.582031 C 641.414062 51.414062 643.765625 44.699219 648.484375 40.433594 C 653.199219 36.167969 660.640625 34.03125 670.828125 34.03125 C 676.8125 34.03125 682.488281 34.734375 687.832031 36.128906 C 689.617188 36.640625 690.507812 37.847656 690.507812 39.757812 L 690.507812 48.550781 C 690.507812 50.972656 689.359375 51.863281 687.066406 51.226562 C 681.585938 49.953125 677.066406 49.316406 673.507812 49.316406 C 668.027344 49.316406 664.113281 50.175781 661.757812 51.894531 C 659.40625 53.609375 658.226562 56.699219 658.226562 61.160156 C 658.226562 64.855469 659.472656 67.972656 661.953125 70.523438 C 664.433594 73.070312 668.542969 76.128906 674.277344 79.691406 C 681.28125 84.023438 686.40625 88.449219 689.652344 92.96875 C 692.898438 97.488281 694.527344 103.566406 694.527344 111.214844 " clip-rule="nonzero"/></clipPath><clipPath id="fa7e1d3f1c"><path d="M 0.414062 0.03125 L 53.636719 0.03125 L 53.636719 106.152344 L 0.414062 106.152344 Z M 0.414062 0.03125 " clip-rule="nonzero"/></clipPath><clipPath id="cebe188100"><path d="M 53.519531 77.207031 C 53.519531 96.433594 43.332031 106.054688 22.957031 106.054688 C 15.316406 106.054688 8.757812 105.222656 3.277344 103.570312 C 1.367188 102.933594 0.414062 101.726562 0.414062 99.945312 L 0.414062 90.574219 C 0.414062 88.277344 1.621094 87.515625 4.042969 88.277344 C 8.496094 89.9375 14.230469 90.761719 21.230469 90.761719 C 31.546875 90.761719 36.703125 86.171875 36.703125 77.003906 C 36.703125 72.679688 35.527344 69.269531 33.171875 66.785156 C 30.820312 64.304688 26.457031 61.027344 20.085938 56.949219 C 13.210938 52.625 8.210938 48.390625 5.089844 44.246094 C 1.972656 40.097656 0.414062 34.222656 0.414062 26.582031 C 0.414062 17.414062 2.765625 10.699219 7.484375 6.433594 C 12.199219 2.167969 19.640625 0.03125 29.828125 0.03125 C 35.8125 0.03125 41.488281 0.734375 46.832031 2.128906 C 48.617188 2.640625 49.507812 3.847656 49.507812 5.757812 L 49.507812 14.550781 C 49.507812 16.972656 48.359375 17.863281 46.066406 17.226562 C 40.585938 15.953125 36.066406 15.316406 32.507812 15.316406 C 27.027344 15.316406 23.113281 16.175781 20.757812 17.894531 C 18.40625 19.609375 17.226562 22.699219 17.226562 27.160156 C 17.226562 30.855469 18.472656 33.972656 20.953125 36.523438 C 23.433594 39.070312 27.542969 42.128906 33.277344 45.691406 C 40.28125 50.023438 45.40625 54.449219 48.652344 58.96875 C 51.898438 63.488281 53.527344 69.566406 53.527344 77.214844 " clip-rule="nonzero"/></clipPath><clipPath id="3e0f617ea8"><rect x="0" width="54" y="0" height="107"/></clipPath><clipPath id="372e6a7130"><rect x="0" width="695" y="0" height="471"/></clipPath></defs><g transform="matrix(1, 0, 0, 1, 71, 185)"><g clip-path="url(#372e6a7130)"><g clip-path="url(#16ae3339d8)"><g clip-path="url(#7efae6e8b2)"><g transform="matrix(1, 0, 0, 1, 165, 148)"><g clip-path="url(#a8edde770f)"><g clip-path="url(#3e80d623c1)"><g clip-path="url(#aa7ea857fb)"><rect x="-542.579" width="1455.408" fill="#83b6f5" y="-639.578999" height="1455.407995" fill-opacity="1"/></g></g></g></g></g></g><g clip-path="url(#0721693a6a)"><g clip-path="url(#13ac01ee59)"><g transform="matrix(1, 0, 0, 1, 4, 4)"><g clip-path="url(#80466ffe9c)"><g clip-path="url(#0fc9e54375)"><g clip-path="url(#ee01484001)"><rect x="-381.579" width="1455.408" fill="#2a1f6e" y="-495.578999" height="1455.407995" fill-opacity="1"/></g></g></g></g></g></g><g clip-path="url(#b30a689c08)"><g clip-path="url(#bd0ae93bdc)"><g transform="matrix(1, 0, 0, 1, 115, 4)"><g clip-path="url(#d98a23abed)"><g clip-path="url(#75631e965d)"><g clip-path="url(#40113a9d40)"><rect x="-492.579" width="1455.408" fill="#fe4d93" y="-495.578999" height="1455.407995" fill-opacity="1"/></g></g></g></g></g></g><g clip-path="url(#c8b30f36ad)"><g clip-path="url(#b2df81916c)"><g transform="matrix(1, 0, 0, 1, 107, 258)"><g clip-path="url(#2009c6e893)"><g clip-path="url(#cab5e2570b)"><g clip-path="url(#3cd02d12ca)"><rect x="-484.579" width="1455.408" fill="#2a1f6e" y="-749.578999" height="1455.407995" fill-opacity="1"/></g></g></g></g></g></g><g clip-path="url(#3200bed5c2)"><g clip-path="url(#330388c51e)"><g transform="matrix(1, 0, 0, 1, 4, 258)"><g clip-path="url(#a172eecd35)"><g clip-path="url(#eb5379fcb3)"><g clip-path="url(#99b1c4fb5e)"><rect x="-381.579" width="1455.408" fill="#21a179" y="-749.578999" height="1455.407995" fill-opacity="1"/></g></g></g></g></g></g><g clip-path="url(#d9949a0aee)"><g clip-path="url(#eb824942a0)"><g transform="matrix(1, 0, 0, 1, 384, 165)"><g clip-path="url(#99f7d22919)"><g clip-path="url(#3b13370f4b)"><g clip-path="url(#c64dd790d6)"><path fill="#81b7f7" d="M 0.679688 0.394531 L 72.667969 0.394531 L 72.667969 138.746094 L 0.679688 138.746094 Z M 0.679688 0.394531 " fill-opacity="1" fill-rule="nonzero"/></g></g></g></g></g></g><g clip-path="url(#581d0d1905)"><g clip-path="url(#3e82bd82d4)"><g transform="matrix(1, 0, 0, 1, 472, 166)"><g clip-path="url(#33333f1e29)"><g clip-path="url(#bbd736536d)"><g clip-path="url(#f608f51339)"><path fill="#81b7f7" d="M 0.796875 0.179688 L 19.285156 0.179688 L 19.285156 137.695312 L 0.796875 137.695312 Z M 0.796875 0.179688 " fill-opacity="1" fill-rule="nonzero"/></g></g></g></g></g></g><g clip-path="url(#9a2d8096c9)"><g clip-path="url(#abb5784cfb)"><g transform="matrix(1, 0, 0, 1, 384, 326)"><g clip-path="url(#0c4485a2b8)"><g clip-path="url(#4e308e5919)"><g clip-path="url(#1a085b0f28)"><rect x="-761.579" width="1455.408" fill="#2a1f6e" y="-817.578999" height="1455.407995" fill-opacity="1"/></g></g></g></g></g></g><g clip-path="url(#112478f2a5)"><g clip-path="url(#9d07047c48)"><g transform="matrix(1, 0, 0, 1, 449, 357)"><g clip-path="url(#0a80c655fc)"><g clip-path="url(#58318ded14)"><g clip-path="url(#0a0291dc0c)"><rect x="-826.579" width="1455.408" fill="#2a1f6e" y="-848.578999" height="1455.407995" fill-opacity="1"/></g></g></g></g></g></g><g clip-path="url(#4e5956b0d2)"><g clip-path="url(#f52bdd03c6)"><g transform="matrix(1, 0, 0, 1, 384, 4)"><g clip-path="url(#90dcbd8393)"><g clip-path="url(#416e4a32ea)"><g clip-path="url(#a44459b4b0)"><rect x="-761.579" width="1455.408" fill="#fe4d93" y="-495.578999" height="1455.407995" fill-opacity="1"/></g></g></g></g></g></g><g clip-path="url(#ee7bc7643a)"><g clip-path="url(#aea8a6a571)"><g transform="matrix(1, 0, 0, 1, 450, 35)"><g clip-path="url(#6eaa25722d)"><g clip-path="url(#7b0b1552f3)"><g clip-path="url(#a92713d411)"><rect x="-827.579" width="1455.408" fill="#fe4d93" y="-526.578999" height="1455.407995" fill-opacity="1"/></g></g></g></g></g></g><g clip-path="url(#47f292e2e1)"><g clip-path="url(#5625118590)"><g transform="matrix(1, 0, 0, 1, 506, 165)"><g clip-path="url(#7d128d1050)"><g clip-path="url(#c7544e6933)"><g clip-path="url(#d8530cebb4)"><path fill="#81b7f7" d="M 0.625 0.394531 L 71.238281 0.394531 L 71.238281 140.242188 L 0.625 140.242188 Z M 0.625 0.394531 " fill-opacity="1" fill-rule="nonzero"/></g></g></g></g></g></g><g clip-path="url(#6d9ad73287)"><g clip-path="url(#628596c534)"><g transform="matrix(1, 0, 0, 1, 526, 357)"><g clip-path="url(#6a81c0ff36)"><g clip-path="url(#af6afdadb1)"><g clip-path="url(#b7f1d39d2d)"><path fill="#2a1f6e" d="M 0.140625 0.242188 L 52.679688 0.242188 L 52.679688 109.425781 L 0.140625 109.425781 Z M 0.140625 0.242188 " fill-opacity="1" fill-rule="nonzero"/></g></g></g></g></g></g><g clip-path="url(#08b50e2c1e)"><g clip-path="url(#98fa509330)"><g transform="matrix(1, 0, 0, 1, 529, 34)"><g clip-path="url(#51d395265d)"><g clip-path="url(#14ce91d411)"><g clip-path="url(#4425a3c224)"><path fill="#fe4d93" d="M 0.667969 0.0273438 L 64.085938 0.0273438 L 64.085938 104.574219 L 0.667969 104.574219 Z M 0.667969 0.0273438 " fill-opacity="1" fill-rule="nonzero"/></g></g></g></g></g></g><g clip-path="url(#47cbd6c19b)"><g clip-path="url(#6c0cf63100)"><g transform="matrix(1, 0, 0, 1, 609, 4)"><g clip-path="url(#ddcc92b3fc)"><g clip-path="url(#51f7964add)"><g clip-path="url(#8a98598611)"><path fill="#fe4d93" d="M 0.898438 0.992188 L 18.855469 0.992188 L 18.855469 134.542969 L 0.898438 134.542969 Z M 0.898438 0.992188 " fill-opacity="1" fill-rule="nonzero"/></g></g></g></g></g></g><g clip-path="url(#68f0bbab97)"><g clip-path="url(#8db6289522)"><g transform="matrix(1, 0, 0, 1, 592, 326)"><g clip-path="url(#8d0a7360da)"><g clip-path="url(#fb78dce5d5)"><g clip-path="url(#dbdbe9f453)"><path fill="#2a1f6e" d="M 0.296875 0.558594 L 65.289062 0.558594 L 65.289062 138.921875 L 0.296875 138.921875 Z M 0.296875 0.558594 " fill-opacity="1" fill-rule="nonzero"/></g></g></g></g></g></g><g clip-path="url(#dd87cc565f)"><g clip-path="url(#517e96825a)"><g transform="matrix(1, 0, 0, 1, 592, 196)"><g clip-path="url(#54515332a0)"><g clip-path="url(#6c81bab3b5)"><g clip-path="url(#976ac99016)"><path fill="#81b7f7" d="M 0.777344 0.078125 L 65.289062 0.078125 L 65.289062 109.199219 L 0.777344 109.199219 Z M 0.777344 0.078125 " fill-opacity="1" fill-rule="nonzero"/></g></g></g></g></g></g><g clip-path="url(#73df161f60)"><g clip-path="url(#a55ac04b3d)"><g transform="matrix(1, 0, 0, 1, 641, 34)"><g clip-path="url(#3e0f617ea8)"><g clip-path="url(#fa7e1d3f1c)"><g clip-path="url(#cebe188100)"><path fill="#fe4d93" d="M 0.414062 0.03125 L 53.519531 0.03125 L 53.519531 106.035156 L 0.414062 106.035156 Z M 0.414062 0.03125 " fill-opacity="1" fill-rule="nonzero"/></g></g></g></g></g></g></g></g></svg>